<svg width="21" height="19" viewBox="0 0 21 19" fill="none" xmlns="http://www.w3.org/2000/svg">
<path d="M18.5 0.549316H2.5C1.96957 0.549316 1.46086 0.76003 1.08579 1.1351C0.710714 1.51018 0.5 2.01888 0.5 2.54932V6.54932C0.5 7.07975 0.710714 7.58846 1.08579 7.96353C1.46086 8.3386 1.96957 8.54932 2.5 8.54932H18.5C19.0304 8.54932 19.5391 8.3386 19.9142 7.96353C20.2893 7.58846 20.5 7.07975 20.5 6.54932V2.54932C20.5 2.01888 20.2893 1.51018 19.9142 1.1351C19.5391 0.76003 19.0304 0.549316 18.5 0.549316ZM13.5 4.54932C13.5 5.1016 13.0523 5.54932 12.5 5.54932C11.9477 5.54932 11.5 5.1016 11.5 4.54932C11.5 3.99703 11.9477 3.54932 12.5 3.54932C13.0523 3.54932 13.5 3.99703 13.5 4.54932ZM17.5 4.54932C17.5 5.1016 17.0523 5.54932 16.5 5.54932C15.9477 5.54932 15.5 5.1016 15.5 4.54932C15.5 3.99703 15.9477 3.54932 16.5 3.54932C17.0523 3.54932 17.5 3.99703 17.5 4.54932ZM18.5 10.5493H2.5C1.96957 10.5493 1.46086 10.76 1.08579 11.1351C0.710714 11.5102 0.5 12.0189 0.5 12.5493V16.5493C0.5 17.0798 0.710714 17.5885 1.08579 17.9635C1.46086 18.3386 1.96957 18.5493 2.5 18.5493H18.5C19.0304 18.5493 19.5391 18.3386 19.9142 17.9635C20.2893 17.5885 20.5 17.0798 20.5 16.5493V12.5493C20.5 12.0189 20.2893 11.5102 19.9142 11.1351C19.5391 10.76 19.0304 10.5493 18.5 10.5493ZM13.5 14.5493C13.5 15.1016 13.0523 15.5493 12.5 15.5493C11.9477 15.5493 11.5 15.1016 11.5 14.5493C11.5 13.997 11.9477 13.5493 12.5 13.5493C13.0523 13.5493 13.5 13.997 13.5 14.5493ZM17.5 14.5493C17.5 15.1016 17.0523 15.5493 16.5 15.5493C15.9477 15.5493 15.5 15.1016 15.5 14.5493C15.5 13.997 15.9477 13.5493 16.5 13.5493C17.0523 13.5493 17.5 13.997 17.5 14.5493Z" fill="#F53838"/>
</svg>
