<svg width="17" height="19" viewBox="0 0 17 19" fill="none" xmlns="http://www.w3.org/2000/svg">
<path fill-rule="evenodd" clip-rule="evenodd" d="M8.50001 7.34929C9.45479 7.34929 10.3705 6.97001 11.0456 6.29488C11.7207 5.61975 12.1 4.70407 12.1 3.74929C12.1 2.79451 11.7207 1.87884 11.0456 1.20371C10.3705 0.528577 9.45479 0.149292 8.50001 0.149292C7.54523 0.149292 6.62955 0.528577 5.95442 1.20371C5.27929 1.87884 4.90001 2.79451 4.90001 3.74929C4.90001 4.70407 5.27929 5.61975 5.95442 6.29488C6.62955 6.97001 7.54523 7.34929 8.50001 7.34929ZM3.39866 18.1493C1.57686 18.1493 0.0422473 16.6179 0.739418 14.9347C1.16156 13.9156 1.7803 12.9896 2.56031 12.2096C3.34032 11.4296 4.26633 10.8108 5.28547 10.3887C6.3046 9.96656 7.3969 9.74929 8.50001 9.74929C9.60311 9.74929 10.6954 9.96656 11.7145 10.3887C12.7337 10.8108 13.6597 11.4296 14.4397 12.2096C15.2197 12.9896 15.8385 13.9156 16.2606 14.9347C16.9578 16.6179 15.4232 18.1493 13.6014 18.1493H3.39866Z" fill="#F53838"/>
</svg>
